<?xml version="1.0" encoding="utf-8"?>
<!DOCTYPE svg PUBLIC "-//W3C//DTD SVG 1.0//EN" "http://www.w3.org/TR/2001/REC-SVG-20010904/DTD/svg10.dtd">
<svg xmlns="http://www.w3.org/2000/svg" xml:space="preserve" xmlns:xlink="http://www.w3.org/1999/xlink" width="185" height="185" viewBox="0 0 185 185">
<desc></desc>
<rect width="185" height="185" fill="#ffffff" cx="0" cy="0" />
<defs>
<rect id="p" width="5" height="5" />
</defs>
<g fill="#000000">
<use x="10" y="10" xlink:href="#p" />
<use x="15" y="10" xlink:href="#p" />
<use x="20" y="10" xlink:href="#p" />
<use x="25" y="10" xlink:href="#p" />
<use x="30" y="10" xlink:href="#p" />
<use x="35" y="10" xlink:href="#p" />
<use x="40" y="10" xlink:href="#p" />
<use x="50" y="10" xlink:href="#p" />
<use x="60" y="10" xlink:href="#p" />
<use x="65" y="10" xlink:href="#p" />
<use x="80" y="10" xlink:href="#p" />
<use x="90" y="10" xlink:href="#p" />
<use x="95" y="10" xlink:href="#p" />
<use x="100" y="10" xlink:href="#p" />
<use x="105" y="10" xlink:href="#p" />
<use x="110" y="10" xlink:href="#p" />
<use x="125" y="10" xlink:href="#p" />
<use x="140" y="10" xlink:href="#p" />
<use x="145" y="10" xlink:href="#p" />
<use x="150" y="10" xlink:href="#p" />
<use x="155" y="10" xlink:href="#p" />
<use x="160" y="10" xlink:href="#p" />
<use x="165" y="10" xlink:href="#p" />
<use x="170" y="10" xlink:href="#p" />
<use x="10" y="15" xlink:href="#p" />
<use x="40" y="15" xlink:href="#p" />
<use x="60" y="15" xlink:href="#p" />
<use x="75" y="15" xlink:href="#p" />
<use x="90" y="15" xlink:href="#p" />
<use x="95" y="15" xlink:href="#p" />
<use x="110" y="15" xlink:href="#p" />
<use x="120" y="15" xlink:href="#p" />
<use x="140" y="15" xlink:href="#p" />
<use x="170" y="15" xlink:href="#p" />
<use x="10" y="20" xlink:href="#p" />
<use x="20" y="20" xlink:href="#p" />
<use x="25" y="20" xlink:href="#p" />
<use x="30" y="20" xlink:href="#p" />
<use x="40" y="20" xlink:href="#p" />
<use x="60" y="20" xlink:href="#p" />
<use x="65" y="20" xlink:href="#p" />
<use x="75" y="20" xlink:href="#p" />
<use x="90" y="20" xlink:href="#p" />
<use x="95" y="20" xlink:href="#p" />
<use x="100" y="20" xlink:href="#p" />
<use x="105" y="20" xlink:href="#p" />
<use x="125" y="20" xlink:href="#p" />
<use x="130" y="20" xlink:href="#p" />
<use x="140" y="20" xlink:href="#p" />
<use x="150" y="20" xlink:href="#p" />
<use x="155" y="20" xlink:href="#p" />
<use x="160" y="20" xlink:href="#p" />
<use x="170" y="20" xlink:href="#p" />
<use x="10" y="25" xlink:href="#p" />
<use x="20" y="25" xlink:href="#p" />
<use x="25" y="25" xlink:href="#p" />
<use x="30" y="25" xlink:href="#p" />
<use x="40" y="25" xlink:href="#p" />
<use x="55" y="25" xlink:href="#p" />
<use x="65" y="25" xlink:href="#p" />
<use x="80" y="25" xlink:href="#p" />
<use x="85" y="25" xlink:href="#p" />
<use x="110" y="25" xlink:href="#p" />
<use x="115" y="25" xlink:href="#p" />
<use x="120" y="25" xlink:href="#p" />
<use x="140" y="25" xlink:href="#p" />
<use x="150" y="25" xlink:href="#p" />
<use x="155" y="25" xlink:href="#p" />
<use x="160" y="25" xlink:href="#p" />
<use x="170" y="25" xlink:href="#p" />
<use x="10" y="30" xlink:href="#p" />
<use x="20" y="30" xlink:href="#p" />
<use x="25" y="30" xlink:href="#p" />
<use x="30" y="30" xlink:href="#p" />
<use x="40" y="30" xlink:href="#p" />
<use x="50" y="30" xlink:href="#p" />
<use x="65" y="30" xlink:href="#p" />
<use x="70" y="30" xlink:href="#p" />
<use x="75" y="30" xlink:href="#p" />
<use x="90" y="30" xlink:href="#p" />
<use x="95" y="30" xlink:href="#p" />
<use x="100" y="30" xlink:href="#p" />
<use x="130" y="30" xlink:href="#p" />
<use x="140" y="30" xlink:href="#p" />
<use x="150" y="30" xlink:href="#p" />
<use x="155" y="30" xlink:href="#p" />
<use x="160" y="30" xlink:href="#p" />
<use x="170" y="30" xlink:href="#p" />
<use x="10" y="35" xlink:href="#p" />
<use x="40" y="35" xlink:href="#p" />
<use x="50" y="35" xlink:href="#p" />
<use x="65" y="35" xlink:href="#p" />
<use x="80" y="35" xlink:href="#p" />
<use x="85" y="35" xlink:href="#p" />
<use x="90" y="35" xlink:href="#p" />
<use x="95" y="35" xlink:href="#p" />
<use x="110" y="35" xlink:href="#p" />
<use x="120" y="35" xlink:href="#p" />
<use x="140" y="35" xlink:href="#p" />
<use x="170" y="35" xlink:href="#p" />
<use x="10" y="40" xlink:href="#p" />
<use x="15" y="40" xlink:href="#p" />
<use x="20" y="40" xlink:href="#p" />
<use x="25" y="40" xlink:href="#p" />
<use x="30" y="40" xlink:href="#p" />
<use x="35" y="40" xlink:href="#p" />
<use x="40" y="40" xlink:href="#p" />
<use x="50" y="40" xlink:href="#p" />
<use x="60" y="40" xlink:href="#p" />
<use x="70" y="40" xlink:href="#p" />
<use x="80" y="40" xlink:href="#p" />
<use x="90" y="40" xlink:href="#p" />
<use x="100" y="40" xlink:href="#p" />
<use x="110" y="40" xlink:href="#p" />
<use x="120" y="40" xlink:href="#p" />
<use x="130" y="40" xlink:href="#p" />
<use x="140" y="40" xlink:href="#p" />
<use x="145" y="40" xlink:href="#p" />
<use x="150" y="40" xlink:href="#p" />
<use x="155" y="40" xlink:href="#p" />
<use x="160" y="40" xlink:href="#p" />
<use x="165" y="40" xlink:href="#p" />
<use x="170" y="40" xlink:href="#p" />
<use x="55" y="45" xlink:href="#p" />
<use x="65" y="45" xlink:href="#p" />
<use x="80" y="45" xlink:href="#p" />
<use x="85" y="45" xlink:href="#p" />
<use x="115" y="45" xlink:href="#p" />
<use x="120" y="45" xlink:href="#p" />
<use x="130" y="45" xlink:href="#p" />
<use x="15" y="50" xlink:href="#p" />
<use x="20" y="50" xlink:href="#p" />
<use x="25" y="50" xlink:href="#p" />
<use x="30" y="50" xlink:href="#p" />
<use x="35" y="50" xlink:href="#p" />
<use x="40" y="50" xlink:href="#p" />
<use x="45" y="50" xlink:href="#p" />
<use x="55" y="50" xlink:href="#p" />
<use x="60" y="50" xlink:href="#p" />
<use x="65" y="50" xlink:href="#p" />
<use x="70" y="50" xlink:href="#p" />
<use x="75" y="50" xlink:href="#p" />
<use x="85" y="50" xlink:href="#p" />
<use x="90" y="50" xlink:href="#p" />
<use x="95" y="50" xlink:href="#p" />
<use x="120" y="50" xlink:href="#p" />
<use x="130" y="50" xlink:href="#p" />
<use x="145" y="50" xlink:href="#p" />
<use x="150" y="50" xlink:href="#p" />
<use x="170" y="50" xlink:href="#p" />
<use x="10" y="55" xlink:href="#p" />
<use x="15" y="55" xlink:href="#p" />
<use x="25" y="55" xlink:href="#p" />
<use x="35" y="55" xlink:href="#p" />
<use x="70" y="55" xlink:href="#p" />
<use x="85" y="55" xlink:href="#p" />
<use x="100" y="55" xlink:href="#p" />
<use x="105" y="55" xlink:href="#p" />
<use x="110" y="55" xlink:href="#p" />
<use x="115" y="55" xlink:href="#p" />
<use x="120" y="55" xlink:href="#p" />
<use x="125" y="55" xlink:href="#p" />
<use x="140" y="55" xlink:href="#p" />
<use x="145" y="55" xlink:href="#p" />
<use x="155" y="55" xlink:href="#p" />
<use x="160" y="55" xlink:href="#p" />
<use x="170" y="55" xlink:href="#p" />
<use x="25" y="60" xlink:href="#p" />
<use x="30" y="60" xlink:href="#p" />
<use x="40" y="60" xlink:href="#p" />
<use x="45" y="60" xlink:href="#p" />
<use x="55" y="60" xlink:href="#p" />
<use x="70" y="60" xlink:href="#p" />
<use x="80" y="60" xlink:href="#p" />
<use x="90" y="60" xlink:href="#p" />
<use x="100" y="60" xlink:href="#p" />
<use x="115" y="60" xlink:href="#p" />
<use x="130" y="60" xlink:href="#p" />
<use x="135" y="60" xlink:href="#p" />
<use x="140" y="60" xlink:href="#p" />
<use x="150" y="60" xlink:href="#p" />
<use x="160" y="60" xlink:href="#p" />
<use x="165" y="60" xlink:href="#p" />
<use x="20" y="65" xlink:href="#p" />
<use x="25" y="65" xlink:href="#p" />
<use x="30" y="65" xlink:href="#p" />
<use x="35" y="65" xlink:href="#p" />
<use x="50" y="65" xlink:href="#p" />
<use x="60" y="65" xlink:href="#p" />
<use x="65" y="65" xlink:href="#p" />
<use x="70" y="65" xlink:href="#p" />
<use x="80" y="65" xlink:href="#p" />
<use x="85" y="65" xlink:href="#p" />
<use x="90" y="65" xlink:href="#p" />
<use x="105" y="65" xlink:href="#p" />
<use x="110" y="65" xlink:href="#p" />
<use x="115" y="65" xlink:href="#p" />
<use x="120" y="65" xlink:href="#p" />
<use x="130" y="65" xlink:href="#p" />
<use x="135" y="65" xlink:href="#p" />
<use x="140" y="65" xlink:href="#p" />
<use x="150" y="65" xlink:href="#p" />
<use x="155" y="65" xlink:href="#p" />
<use x="160" y="65" xlink:href="#p" />
<use x="10" y="70" xlink:href="#p" />
<use x="20" y="70" xlink:href="#p" />
<use x="25" y="70" xlink:href="#p" />
<use x="35" y="70" xlink:href="#p" />
<use x="40" y="70" xlink:href="#p" />
<use x="45" y="70" xlink:href="#p" />
<use x="65" y="70" xlink:href="#p" />
<use x="70" y="70" xlink:href="#p" />
<use x="75" y="70" xlink:href="#p" />
<use x="80" y="70" xlink:href="#p" />
<use x="85" y="70" xlink:href="#p" />
<use x="90" y="70" xlink:href="#p" />
<use x="100" y="70" xlink:href="#p" />
<use x="105" y="70" xlink:href="#p" />
<use x="115" y="70" xlink:href="#p" />
<use x="130" y="70" xlink:href="#p" />
<use x="135" y="70" xlink:href="#p" />
<use x="145" y="70" xlink:href="#p" />
<use x="150" y="70" xlink:href="#p" />
<use x="155" y="70" xlink:href="#p" />
<use x="165" y="70" xlink:href="#p" />
<use x="25" y="75" xlink:href="#p" />
<use x="30" y="75" xlink:href="#p" />
<use x="35" y="75" xlink:href="#p" />
<use x="45" y="75" xlink:href="#p" />
<use x="50" y="75" xlink:href="#p" />
<use x="55" y="75" xlink:href="#p" />
<use x="60" y="75" xlink:href="#p" />
<use x="70" y="75" xlink:href="#p" />
<use x="75" y="75" xlink:href="#p" />
<use x="85" y="75" xlink:href="#p" />
<use x="90" y="75" xlink:href="#p" />
<use x="110" y="75" xlink:href="#p" />
<use x="115" y="75" xlink:href="#p" />
<use x="120" y="75" xlink:href="#p" />
<use x="135" y="75" xlink:href="#p" />
<use x="140" y="75" xlink:href="#p" />
<use x="155" y="75" xlink:href="#p" />
<use x="165" y="75" xlink:href="#p" />
<use x="170" y="75" xlink:href="#p" />
<use x="10" y="80" xlink:href="#p" />
<use x="40" y="80" xlink:href="#p" />
<use x="50" y="80" xlink:href="#p" />
<use x="55" y="80" xlink:href="#p" />
<use x="60" y="80" xlink:href="#p" />
<use x="65" y="80" xlink:href="#p" />
<use x="90" y="80" xlink:href="#p" />
<use x="100" y="80" xlink:href="#p" />
<use x="105" y="80" xlink:href="#p" />
<use x="120" y="80" xlink:href="#p" />
<use x="125" y="80" xlink:href="#p" />
<use x="130" y="80" xlink:href="#p" />
<use x="135" y="80" xlink:href="#p" />
<use x="140" y="80" xlink:href="#p" />
<use x="145" y="80" xlink:href="#p" />
<use x="150" y="80" xlink:href="#p" />
<use x="165" y="80" xlink:href="#p" />
<use x="15" y="85" xlink:href="#p" />
<use x="25" y="85" xlink:href="#p" />
<use x="65" y="85" xlink:href="#p" />
<use x="70" y="85" xlink:href="#p" />
<use x="75" y="85" xlink:href="#p" />
<use x="90" y="85" xlink:href="#p" />
<use x="95" y="85" xlink:href="#p" />
<use x="105" y="85" xlink:href="#p" />
<use x="110" y="85" xlink:href="#p" />
<use x="115" y="85" xlink:href="#p" />
<use x="125" y="85" xlink:href="#p" />
<use x="135" y="85" xlink:href="#p" />
<use x="140" y="85" xlink:href="#p" />
<use x="150" y="85" xlink:href="#p" />
<use x="155" y="85" xlink:href="#p" />
<use x="160" y="85" xlink:href="#p" />
<use x="15" y="90" xlink:href="#p" />
<use x="35" y="90" xlink:href="#p" />
<use x="40" y="90" xlink:href="#p" />
<use x="50" y="90" xlink:href="#p" />
<use x="70" y="90" xlink:href="#p" />
<use x="75" y="90" xlink:href="#p" />
<use x="95" y="90" xlink:href="#p" />
<use x="100" y="90" xlink:href="#p" />
<use x="105" y="90" xlink:href="#p" />
<use x="120" y="90" xlink:href="#p" />
<use x="125" y="90" xlink:href="#p" />
<use x="135" y="90" xlink:href="#p" />
<use x="145" y="90" xlink:href="#p" />
<use x="150" y="90" xlink:href="#p" />
<use x="170" y="90" xlink:href="#p" />
<use x="20" y="95" xlink:href="#p" />
<use x="25" y="95" xlink:href="#p" />
<use x="30" y="95" xlink:href="#p" />
<use x="45" y="95" xlink:href="#p" />
<use x="55" y="95" xlink:href="#p" />
<use x="60" y="95" xlink:href="#p" />
<use x="65" y="95" xlink:href="#p" />
<use x="70" y="95" xlink:href="#p" />
<use x="75" y="95" xlink:href="#p" />
<use x="80" y="95" xlink:href="#p" />
<use x="105" y="95" xlink:href="#p" />
<use x="125" y="95" xlink:href="#p" />
<use x="135" y="95" xlink:href="#p" />
<use x="140" y="95" xlink:href="#p" />
<use x="145" y="95" xlink:href="#p" />
<use x="155" y="95" xlink:href="#p" />
<use x="160" y="95" xlink:href="#p" />
<use x="165" y="95" xlink:href="#p" />
<use x="170" y="95" xlink:href="#p" />
<use x="15" y="100" xlink:href="#p" />
<use x="20" y="100" xlink:href="#p" />
<use x="40" y="100" xlink:href="#p" />
<use x="45" y="100" xlink:href="#p" />
<use x="55" y="100" xlink:href="#p" />
<use x="60" y="100" xlink:href="#p" />
<use x="65" y="100" xlink:href="#p" />
<use x="85" y="100" xlink:href="#p" />
<use x="95" y="100" xlink:href="#p" />
<use x="110" y="100" xlink:href="#p" />
<use x="120" y="100" xlink:href="#p" />
<use x="145" y="100" xlink:href="#p" />
<use x="150" y="100" xlink:href="#p" />
<use x="160" y="100" xlink:href="#p" />
<use x="10" y="105" xlink:href="#p" />
<use x="25" y="105" xlink:href="#p" />
<use x="60" y="105" xlink:href="#p" />
<use x="65" y="105" xlink:href="#p" />
<use x="75" y="105" xlink:href="#p" />
<use x="85" y="105" xlink:href="#p" />
<use x="100" y="105" xlink:href="#p" />
<use x="125" y="105" xlink:href="#p" />
<use x="140" y="105" xlink:href="#p" />
<use x="145" y="105" xlink:href="#p" />
<use x="150" y="105" xlink:href="#p" />
<use x="155" y="105" xlink:href="#p" />
<use x="160" y="105" xlink:href="#p" />
<use x="165" y="105" xlink:href="#p" />
<use x="10" y="110" xlink:href="#p" />
<use x="20" y="110" xlink:href="#p" />
<use x="25" y="110" xlink:href="#p" />
<use x="30" y="110" xlink:href="#p" />
<use x="35" y="110" xlink:href="#p" />
<use x="40" y="110" xlink:href="#p" />
<use x="55" y="110" xlink:href="#p" />
<use x="60" y="110" xlink:href="#p" />
<use x="70" y="110" xlink:href="#p" />
<use x="75" y="110" xlink:href="#p" />
<use x="80" y="110" xlink:href="#p" />
<use x="85" y="110" xlink:href="#p" />
<use x="90" y="110" xlink:href="#p" />
<use x="100" y="110" xlink:href="#p" />
<use x="105" y="110" xlink:href="#p" />
<use x="110" y="110" xlink:href="#p" />
<use x="115" y="110" xlink:href="#p" />
<use x="120" y="110" xlink:href="#p" />
<use x="125" y="110" xlink:href="#p" />
<use x="130" y="110" xlink:href="#p" />
<use x="135" y="110" xlink:href="#p" />
<use x="145" y="110" xlink:href="#p" />
<use x="150" y="110" xlink:href="#p" />
<use x="155" y="110" xlink:href="#p" />
<use x="165" y="110" xlink:href="#p" />
<use x="10" y="115" xlink:href="#p" />
<use x="25" y="115" xlink:href="#p" />
<use x="35" y="115" xlink:href="#p" />
<use x="45" y="115" xlink:href="#p" />
<use x="50" y="115" xlink:href="#p" />
<use x="55" y="115" xlink:href="#p" />
<use x="75" y="115" xlink:href="#p" />
<use x="80" y="115" xlink:href="#p" />
<use x="85" y="115" xlink:href="#p" />
<use x="130" y="115" xlink:href="#p" />
<use x="140" y="115" xlink:href="#p" />
<use x="145" y="115" xlink:href="#p" />
<use x="160" y="115" xlink:href="#p" />
<use x="170" y="115" xlink:href="#p" />
<use x="10" y="120" xlink:href="#p" />
<use x="20" y="120" xlink:href="#p" />
<use x="25" y="120" xlink:href="#p" />
<use x="30" y="120" xlink:href="#p" />
<use x="40" y="120" xlink:href="#p" />
<use x="45" y="120" xlink:href="#p" />
<use x="50" y="120" xlink:href="#p" />
<use x="65" y="120" xlink:href="#p" />
<use x="70" y="120" xlink:href="#p" />
<use x="75" y="120" xlink:href="#p" />
<use x="95" y="120" xlink:href="#p" />
<use x="100" y="120" xlink:href="#p" />
<use x="110" y="120" xlink:href="#p" />
<use x="115" y="120" xlink:href="#p" />
<use x="155" y="120" xlink:href="#p" />
<use x="160" y="120" xlink:href="#p" />
<use x="165" y="120" xlink:href="#p" />
<use x="10" y="125" xlink:href="#p" />
<use x="30" y="125" xlink:href="#p" />
<use x="45" y="125" xlink:href="#p" />
<use x="50" y="125" xlink:href="#p" />
<use x="65" y="125" xlink:href="#p" />
<use x="75" y="125" xlink:href="#p" />
<use x="80" y="125" xlink:href="#p" />
<use x="85" y="125" xlink:href="#p" />
<use x="90" y="125" xlink:href="#p" />
<use x="95" y="125" xlink:href="#p" />
<use x="100" y="125" xlink:href="#p" />
<use x="115" y="125" xlink:href="#p" />
<use x="120" y="125" xlink:href="#p" />
<use x="125" y="125" xlink:href="#p" />
<use x="135" y="125" xlink:href="#p" />
<use x="140" y="125" xlink:href="#p" />
<use x="145" y="125" xlink:href="#p" />
<use x="155" y="125" xlink:href="#p" />
<use x="160" y="125" xlink:href="#p" />
<use x="170" y="125" xlink:href="#p" />
<use x="10" y="130" xlink:href="#p" />
<use x="20" y="130" xlink:href="#p" />
<use x="25" y="130" xlink:href="#p" />
<use x="30" y="130" xlink:href="#p" />
<use x="35" y="130" xlink:href="#p" />
<use x="40" y="130" xlink:href="#p" />
<use x="45" y="130" xlink:href="#p" />
<use x="50" y="130" xlink:href="#p" />
<use x="65" y="130" xlink:href="#p" />
<use x="70" y="130" xlink:href="#p" />
<use x="80" y="130" xlink:href="#p" />
<use x="85" y="130" xlink:href="#p" />
<use x="110" y="130" xlink:href="#p" />
<use x="120" y="130" xlink:href="#p" />
<use x="125" y="130" xlink:href="#p" />
<use x="130" y="130" xlink:href="#p" />
<use x="135" y="130" xlink:href="#p" />
<use x="140" y="130" xlink:href="#p" />
<use x="145" y="130" xlink:href="#p" />
<use x="150" y="130" xlink:href="#p" />
<use x="155" y="130" xlink:href="#p" />
<use x="50" y="135" xlink:href="#p" />
<use x="55" y="135" xlink:href="#p" />
<use x="70" y="135" xlink:href="#p" />
<use x="75" y="135" xlink:href="#p" />
<use x="80" y="135" xlink:href="#p" />
<use x="85" y="135" xlink:href="#p" />
<use x="90" y="135" xlink:href="#p" />
<use x="105" y="135" xlink:href="#p" />
<use x="115" y="135" xlink:href="#p" />
<use x="130" y="135" xlink:href="#p" />
<use x="150" y="135" xlink:href="#p" />
<use x="160" y="135" xlink:href="#p" />
<use x="170" y="135" xlink:href="#p" />
<use x="10" y="140" xlink:href="#p" />
<use x="15" y="140" xlink:href="#p" />
<use x="20" y="140" xlink:href="#p" />
<use x="25" y="140" xlink:href="#p" />
<use x="30" y="140" xlink:href="#p" />
<use x="35" y="140" xlink:href="#p" />
<use x="40" y="140" xlink:href="#p" />
<use x="50" y="140" xlink:href="#p" />
<use x="60" y="140" xlink:href="#p" />
<use x="65" y="140" xlink:href="#p" />
<use x="70" y="140" xlink:href="#p" />
<use x="75" y="140" xlink:href="#p" />
<use x="80" y="140" xlink:href="#p" />
<use x="95" y="140" xlink:href="#p" />
<use x="110" y="140" xlink:href="#p" />
<use x="115" y="140" xlink:href="#p" />
<use x="125" y="140" xlink:href="#p" />
<use x="130" y="140" xlink:href="#p" />
<use x="140" y="140" xlink:href="#p" />
<use x="150" y="140" xlink:href="#p" />
<use x="160" y="140" xlink:href="#p" />
<use x="165" y="140" xlink:href="#p" />
<use x="10" y="145" xlink:href="#p" />
<use x="40" y="145" xlink:href="#p" />
<use x="50" y="145" xlink:href="#p" />
<use x="55" y="145" xlink:href="#p" />
<use x="65" y="145" xlink:href="#p" />
<use x="70" y="145" xlink:href="#p" />
<use x="80" y="145" xlink:href="#p" />
<use x="95" y="145" xlink:href="#p" />
<use x="115" y="145" xlink:href="#p" />
<use x="120" y="145" xlink:href="#p" />
<use x="125" y="145" xlink:href="#p" />
<use x="130" y="145" xlink:href="#p" />
<use x="150" y="145" xlink:href="#p" />
<use x="155" y="145" xlink:href="#p" />
<use x="160" y="145" xlink:href="#p" />
<use x="10" y="150" xlink:href="#p" />
<use x="20" y="150" xlink:href="#p" />
<use x="25" y="150" xlink:href="#p" />
<use x="30" y="150" xlink:href="#p" />
<use x="40" y="150" xlink:href="#p" />
<use x="50" y="150" xlink:href="#p" />
<use x="65" y="150" xlink:href="#p" />
<use x="70" y="150" xlink:href="#p" />
<use x="75" y="150" xlink:href="#p" />
<use x="80" y="150" xlink:href="#p" />
<use x="85" y="150" xlink:href="#p" />
<use x="90" y="150" xlink:href="#p" />
<use x="115" y="150" xlink:href="#p" />
<use x="130" y="150" xlink:href="#p" />
<use x="135" y="150" xlink:href="#p" />
<use x="140" y="150" xlink:href="#p" />
<use x="145" y="150" xlink:href="#p" />
<use x="150" y="150" xlink:href="#p" />
<use x="155" y="150" xlink:href="#p" />
<use x="165" y="150" xlink:href="#p" />
<use x="10" y="155" xlink:href="#p" />
<use x="20" y="155" xlink:href="#p" />
<use x="25" y="155" xlink:href="#p" />
<use x="30" y="155" xlink:href="#p" />
<use x="40" y="155" xlink:href="#p" />
<use x="50" y="155" xlink:href="#p" />
<use x="60" y="155" xlink:href="#p" />
<use x="65" y="155" xlink:href="#p" />
<use x="70" y="155" xlink:href="#p" />
<use x="85" y="155" xlink:href="#p" />
<use x="90" y="155" xlink:href="#p" />
<use x="95" y="155" xlink:href="#p" />
<use x="110" y="155" xlink:href="#p" />
<use x="115" y="155" xlink:href="#p" />
<use x="120" y="155" xlink:href="#p" />
<use x="130" y="155" xlink:href="#p" />
<use x="135" y="155" xlink:href="#p" />
<use x="150" y="155" xlink:href="#p" />
<use x="160" y="155" xlink:href="#p" />
<use x="170" y="155" xlink:href="#p" />
<use x="10" y="160" xlink:href="#p" />
<use x="20" y="160" xlink:href="#p" />
<use x="25" y="160" xlink:href="#p" />
<use x="30" y="160" xlink:href="#p" />
<use x="40" y="160" xlink:href="#p" />
<use x="50" y="160" xlink:href="#p" />
<use x="55" y="160" xlink:href="#p" />
<use x="75" y="160" xlink:href="#p" />
<use x="80" y="160" xlink:href="#p" />
<use x="90" y="160" xlink:href="#p" />
<use x="100" y="160" xlink:href="#p" />
<use x="105" y="160" xlink:href="#p" />
<use x="115" y="160" xlink:href="#p" />
<use x="120" y="160" xlink:href="#p" />
<use x="125" y="160" xlink:href="#p" />
<use x="130" y="160" xlink:href="#p" />
<use x="135" y="160" xlink:href="#p" />
<use x="140" y="160" xlink:href="#p" />
<use x="145" y="160" xlink:href="#p" />
<use x="10" y="165" xlink:href="#p" />
<use x="40" y="165" xlink:href="#p" />
<use x="50" y="165" xlink:href="#p" />
<use x="55" y="165" xlink:href="#p" />
<use x="65" y="165" xlink:href="#p" />
<use x="75" y="165" xlink:href="#p" />
<use x="80" y="165" xlink:href="#p" />
<use x="85" y="165" xlink:href="#p" />
<use x="90" y="165" xlink:href="#p" />
<use x="95" y="165" xlink:href="#p" />
<use x="100" y="165" xlink:href="#p" />
<use x="105" y="165" xlink:href="#p" />
<use x="110" y="165" xlink:href="#p" />
<use x="115" y="165" xlink:href="#p" />
<use x="135" y="165" xlink:href="#p" />
<use x="150" y="165" xlink:href="#p" />
<use x="155" y="165" xlink:href="#p" />
<use x="160" y="165" xlink:href="#p" />
<use x="10" y="170" xlink:href="#p" />
<use x="15" y="170" xlink:href="#p" />
<use x="20" y="170" xlink:href="#p" />
<use x="25" y="170" xlink:href="#p" />
<use x="30" y="170" xlink:href="#p" />
<use x="35" y="170" xlink:href="#p" />
<use x="40" y="170" xlink:href="#p" />
<use x="60" y="170" xlink:href="#p" />
<use x="65" y="170" xlink:href="#p" />
<use x="70" y="170" xlink:href="#p" />
<use x="85" y="170" xlink:href="#p" />
<use x="105" y="170" xlink:href="#p" />
<use x="110" y="170" xlink:href="#p" />
<use x="130" y="170" xlink:href="#p" />
<use x="135" y="170" xlink:href="#p" />
<use x="140" y="170" xlink:href="#p" />
<use x="145" y="170" xlink:href="#p" />
<use x="165" y="170" xlink:href="#p" />
</g>
</svg>